<svg width="23" height="24" viewBox="0 0 23 24" fill="none" xmlns="http://www.w3.org/2000/svg">
<path d="M20.4763 19.6172C20.3814 19.5913 20.2664 19.6056 20.1341 19.6546C18.3629 20.4662 16.6405 21.0448 14.967 21.3873C11.3527 22.1241 7.83031 21.7384 4.40283 20.2331C3.45108 19.8129 2.1284 19.1048 0.434787 18.1032C0.391148 18.0687 0.33791 18.0486 0.282391 18.0456C0.224883 18.0428 0.176001 18.0485 0.129995 18.0715C0.0839884 18.0946 0.0494835 18.1234 0.0236049 18.1608C-0.00227364 18.1982 -0.00802426 18.25 0.0121035 18.3162C0.0293559 18.3795 0.0724868 18.4515 0.144372 18.5292C0.443413 18.8803 0.814339 19.2545 1.25428 19.6517C1.69421 20.0489 2.27792 20.4979 3.00539 20.9987C3.73287 21.4995 4.49485 21.9457 5.28558 22.3342C6.07919 22.7228 6.99932 23.0509 8.04884 23.3157C9.09836 23.5805 10.1479 23.7129 11.1945 23.7129C12.2354 23.7129 13.2476 23.6064 14.2281 23.3992C15.2115 23.1891 16.0396 22.9415 16.7153 22.6537C17.3881 22.3688 18.0092 22.0493 18.5785 21.7039C19.1479 21.3585 19.5677 21.0649 19.8408 20.8318C20.114 20.5958 20.3095 20.4116 20.4217 20.2734C20.5539 20.1093 20.6201 19.9683 20.6201 19.8445C20.623 19.715 20.5712 19.6402 20.4763 19.6172ZM11.9191 7.50553C11.4821 7.54295 10.9559 7.62354 10.3377 7.74443C9.71945 7.86243 9.14724 8.0121 8.61817 8.18767C8.0891 8.36325 7.54852 8.6079 6.99932 8.91875C6.44724 9.2296 5.97855 9.5865 5.59037 9.9837C5.2022 10.3809 4.8859 10.8788 4.63862 11.4804C4.39133 12.0791 4.26769 12.7382 4.26769 13.4577C4.26769 14.2377 4.40284 14.9314 4.67887 15.5445C4.95204 16.1575 5.31721 16.6382 5.77727 16.9951C6.23446 17.352 6.75491 17.6312 7.32999 17.8355C7.90507 18.0399 8.51465 18.132 9.14724 18.1061C9.77983 18.0802 10.398 17.9823 10.999 17.8096C11.5971 17.6398 12.1607 17.3664 12.684 16.9951C13.2073 16.6238 13.6357 16.1834 13.9722 15.6797C14.0958 15.8697 14.2051 16.0107 14.3028 16.1028L14.553 16.359C14.7198 16.5288 14.9757 16.7792 15.3207 17.1102C15.6629 17.4412 16.0137 17.7636 16.3645 18.0802L19.3664 15.2048L19.1939 15.0638C19.0702 14.9688 18.9236 14.8335 18.7568 14.6522C18.59 14.4737 18.4233 14.2751 18.2622 14.0622C18.0984 13.8492 17.9575 13.5988 17.8396 13.3167C17.7217 13.0346 17.6613 12.7612 17.6613 12.4964V4.93239C17.6613 4.64169 17.6067 4.32796 17.4974 3.98833C17.3853 3.65157 17.1897 3.28316 16.9022 2.88596C16.6146 2.48876 16.2581 2.13186 15.8325 1.82101C15.4041 1.51016 14.8348 1.24536 14.1188 1.03237C13.4057 0.819385 12.6063 0.712891 11.7265 0.712891C10.8265 0.712891 9.98973 0.819385 9.20762 1.02662C8.42839 1.23673 7.7613 1.51592 7.20347 1.86706C6.64852 2.21821 6.1712 2.62404 5.7744 3.08744C5.37759 3.55083 5.08143 4.03438 4.88878 4.53807C4.69613 5.04176 4.59836 5.55121 4.59836 6.06641L8.4859 6.40892C8.64405 5.93689 8.85683 5.52818 9.11849 5.17704C9.38302 4.82589 9.63318 4.57261 9.86034 4.4143C10.0904 4.256 10.3377 4.12936 10.5993 4.03438C10.8639 3.9394 11.0421 3.89047 11.1341 3.87895C11.2262 3.87032 11.298 3.86744 11.3527 3.86744C12.1204 3.86744 12.6524 4.09482 12.9514 4.5467C13.1383 4.82014 13.2303 5.2346 13.2303 5.79298V7.42206C12.7932 7.43933 12.3562 7.46811 11.9191 7.50553ZM13.2332 11.8776C13.2332 12.3554 13.1699 12.79 13.0463 13.1728C12.7817 14.0103 12.2785 14.5371 11.5396 14.7501C10.8955 14.94 10.283 14.845 9.70219 14.468C9.08398 14.065 8.77631 13.4951 8.77631 12.7612C8.77631 12.1884 8.92008 11.6991 9.20762 11.2904C9.49516 10.8846 9.87759 10.5795 10.3578 10.378C10.838 10.1765 11.3067 10.0326 11.7667 9.94916C12.2239 9.86281 12.7156 9.811 13.2332 9.79373V11.8776ZM22.8715 18.178C22.7479 18.0226 22.4143 17.9219 21.868 17.8701C21.3217 17.8183 20.8472 17.8211 20.4389 17.8816C19.999 17.9334 19.5447 18.06 19.0789 18.2673C18.6102 18.4716 18.406 18.6443 18.4578 18.7796L18.4779 18.817L18.5038 18.8372L18.544 18.8429H18.6763C18.6993 18.8429 18.7281 18.84 18.7683 18.8372C18.8086 18.8343 18.846 18.8285 18.8805 18.8256C18.915 18.8228 18.9638 18.817 19.0271 18.8141C19.0875 18.8113 19.145 18.8026 19.1996 18.794C19.2083 18.794 19.306 18.7853 19.4958 18.7681C19.6856 18.7508 19.8236 18.7393 19.907 18.7307C19.9904 18.722 20.1313 18.7134 20.3239 18.7048C20.5166 18.6961 20.6718 18.6961 20.7868 18.7048C20.9019 18.7134 21.0313 18.7249 21.1779 18.7364C21.3245 18.7479 21.4424 18.7738 21.5345 18.8141C21.6265 18.8515 21.6955 18.9005 21.7386 18.9609C21.8881 19.1509 21.8594 19.5711 21.6523 20.2245C21.4453 20.8778 21.2498 21.3988 21.0658 21.7845C20.9853 21.9485 20.9853 22.0493 21.0658 22.0924C21.1463 22.1356 21.2584 22.0953 21.4079 21.9773C21.8565 21.6262 22.2303 21.0966 22.5322 20.3856C22.7076 19.9654 22.8341 19.5279 22.9089 19.0703C22.9779 18.6127 22.9664 18.3162 22.8715 18.178Z" fill="white"/>
</svg>
