<svg width="15" height="18" viewBox="0 0 15 18" fill="none" xmlns="http://www.w3.org/2000/svg">
<path d="M1.24992 16C1.24992 17.1 2.18742 18 3.33325 18H11.6666C12.8124 18 13.7499 17.1 13.7499 16V4H1.24992V16ZM4.552 9.59C4.35723 9.40302 4.24781 9.14943 4.24781 8.885C4.24781 8.62057 4.35723 8.36698 4.552 8.18C4.74677 7.99302 5.01093 7.88798 5.28638 7.88798C5.56182 7.88798 5.82598 7.99302 6.02075 8.18L7.49992 9.59L8.96867 8.18C9.16344 7.99302 9.4276 7.88798 9.70304 7.88798C9.97849 7.88798 10.2427 7.99302 10.4374 8.18C10.6322 8.36698 10.7416 8.62057 10.7416 8.885C10.7416 9.14943 10.6322 9.40302 10.4374 9.59L8.96867 11L10.4374 12.41C10.5339 12.5026 10.6104 12.6125 10.6626 12.7335C10.7147 12.8544 10.7416 12.9841 10.7416 13.115C10.7416 13.2459 10.7147 13.3756 10.6626 13.4965C10.6104 13.6175 10.5339 13.7274 10.4374 13.82C10.341 13.9126 10.2265 13.986 10.1005 14.0361C9.97448 14.0862 9.83943 14.112 9.70304 14.112C9.56666 14.112 9.43161 14.0862 9.3056 14.0361C9.1796 13.986 9.06511 13.9126 8.96867 13.82L7.49992 12.41L6.03117 13.82C5.93473 13.9126 5.82024 13.986 5.69423 14.0361C5.56823 14.0862 5.43318 14.112 5.29679 14.112C5.16041 14.112 5.02536 14.0862 4.89935 14.0361C4.77335 13.986 4.65886 13.9126 4.56242 13.82C4.46598 13.7274 4.38948 13.6175 4.33729 13.4965C4.28509 13.3756 4.25823 13.2459 4.25823 13.115C4.25823 12.9841 4.28509 12.8544 4.33729 12.7335C4.38948 12.6125 4.46598 12.5026 4.56242 12.41L6.03117 11L4.552 9.59ZM13.7499 1H11.1458L10.4062 0.29C10.2187 0.11 9.94783 0 9.677 0H5.32283C5.052 0 4.78117 0.11 4.59367 0.29L3.85409 1H1.24992C0.677002 1 0.208252 1.45 0.208252 2C0.208252 2.55 0.677002 3 1.24992 3H13.7499C14.3228 3 14.7916 2.55 14.7916 2C14.7916 1.45 14.3228 1 13.7499 1Z" fill="#25396E"/>
</svg>
