<svg width="58" height="61" viewBox="0 0 58 61" fill="none" xmlns="http://www.w3.org/2000/svg">
<g clip-path="url(#clip0_660_4106)">
<path d="M0.35791 2.70433C0.35791 2.20621 0.547184 1.7285 0.884094 1.37627C1.221 1.02405 1.67795 0.826172 2.15441 0.826172L12.9334 0.826172C13.4099 0.826172 13.8668 1.02405 14.2038 1.37627C14.5407 1.7285 14.7299 2.20621 14.7299 2.70433C14.7299 3.20245 14.5407 3.68017 14.2038 4.0324C13.8668 4.38462 13.4099 4.5825 12.9334 4.5825C7.97253 4.5825 3.95092 8.60411 3.95092 13.565V13.9733C3.95092 14.4714 3.76164 14.9491 3.42473 15.3014C3.08782 15.6536 2.63088 15.8515 2.15441 15.8515C1.67795 15.8515 1.221 15.6536 0.884094 15.3014C0.547184 14.9491 0.35791 14.4714 0.35791 13.9733V2.70433ZM43.474 2.70433C43.474 2.20621 43.6633 1.7285 44.0002 1.37627C44.3371 1.02405 44.794 0.826172 45.2705 0.826172L56.0495 0.826172C56.526 0.826172 56.9829 1.02405 57.3198 1.37627C57.6567 1.7285 57.846 2.20621 57.846 2.70433V13.9733C57.846 14.4714 57.6567 14.9491 57.3198 15.3014C56.9829 15.6536 56.526 15.8515 56.0495 15.8515C55.573 15.8515 55.1161 15.6536 54.7792 15.3014C54.4423 14.9491 54.253 14.4714 54.253 13.9733V13.565C54.253 8.60411 50.2314 4.5825 45.2705 4.5825C44.794 4.5825 44.3371 4.38462 44.0002 4.0324C43.6633 3.68017 43.474 3.20245 43.474 2.70433ZM2.15441 45.9021C2.63088 45.9021 3.08782 46.0999 3.42473 46.4522C3.76164 46.8044 3.95092 47.2821 3.95092 47.7802V48.1885C3.95092 53.1494 7.97253 57.171 12.9334 57.171C13.4099 57.171 13.8668 57.3689 14.2038 57.7211C14.5407 58.0734 14.7299 58.5511 14.7299 59.0492C14.7299 59.5473 14.5407 60.025 14.2038 60.3773C13.8668 60.7295 13.4099 60.9274 12.9334 60.9274H2.15441C1.67795 60.9274 1.221 60.7295 0.884094 60.3773C0.547184 60.025 0.35791 59.5473 0.35791 59.0492V47.7802C0.35791 47.2821 0.547184 46.8044 0.884094 46.4522C1.221 46.0999 1.67795 45.9021 2.15441 45.9021ZM56.0495 45.9021C56.526 45.9021 56.9829 46.0999 57.3198 46.4522C57.6567 46.8044 57.846 47.2821 57.846 47.7802V59.0492C57.846 59.5473 57.6567 60.025 57.3198 60.3773C56.9829 60.7295 56.526 60.9274 56.0495 60.9274H45.2705C44.794 60.9274 44.3371 60.7295 44.0002 60.3773C43.6633 60.025 43.474 59.5473 43.474 59.0492C43.474 58.5511 43.6633 58.0734 44.0002 57.7211C44.3371 57.3689 44.794 57.171 45.2705 57.171C50.2314 57.171 54.253 53.1494 54.253 48.1885V47.7802C54.253 47.2821 54.4423 46.8044 54.7792 46.4522C55.1161 46.0999 55.573 45.9021 56.0495 45.9021ZM14.7299 17.648C14.7299 16.6558 15.5343 15.8515 16.5264 15.8515C17.5186 15.8515 18.3229 16.6558 18.3229 17.648V17.8113C18.3229 18.8035 17.5186 19.6078 16.5264 19.6078C15.5343 19.6078 14.7299 18.8035 14.7299 17.8113V17.648Z" fill="#25396E"/>
<path d="M25.509 8.33887H7.54395V27.1205H25.509V8.33887ZM11.137 12.0952H21.916V23.3642H11.137V12.0952ZM18.323 42.1458H14.73V45.9021H18.323V42.1458Z" fill="white"/>
<path d="M25.509 34.6332H7.54395V53.4148H25.509V34.6332ZM11.137 38.3895H21.916V49.6585H11.137V38.3895ZM39.881 15.8516H43.474V19.6079H39.881V15.8516Z" fill="white"/>
<path d="M32.6951 8.33887H50.6601V27.1205H32.6951V8.33887ZM36.2881 12.0952V23.3642H47.0671V12.0952H36.2881ZM29.1021 30.8768V38.3895H32.6951V42.1458H29.1021V45.9021H36.2881V38.3895H39.8811V45.9021H43.4741V42.1458H50.6601V38.3895H39.8811V30.8768H29.1021ZM36.2881 38.3895H32.6951V34.6331H36.2881V38.3895ZM50.6601 45.9021H47.0671V49.6584H39.8811V53.4148H50.6601V45.9021ZM36.2881 53.4148V49.6584H29.1021V53.4148H36.2881Z" fill="white"/>
<path d="M43.4741 34.6333H50.6601V30.877H43.4741V34.6333Z" fill="white"/>
<ellipse cx="16.4861" cy="17.6869" rx="2.07596" ry="2.17032" fill="white"/>
<path d="M1.47559 30.8758L57.2071 30.375" stroke="#25396E" stroke-width="9.14583" stroke-linecap="round" stroke-linejoin="round"/>
</g>
<defs>
<clipPath id="clip0_660_4106">
<rect width="57.4881" height="60.1012" fill="white" transform="translate(0.357422 0.825195)"/>
</clipPath>
</defs>
</svg>
