<svg width="36" height="43" viewBox="0 0 36 43" fill="none" xmlns="http://www.w3.org/2000/svg">
<path d="M30 30.1019C28.48 30.1019 27.12 30.7327 26.08 31.7208L11.82 22.9958C11.92 22.5122 12 22.0287 12 21.5241C12 21.0195 11.92 20.536 11.82 20.0524L25.92 11.4115C27 12.4627 28.42 13.1145 30 13.1145C33.32 13.1145 36 10.2972 36 6.80723C36 3.31723 33.32 0.5 30 0.5C26.68 0.5 24 3.31723 24 6.80723C24 7.31181 24.08 7.79536 24.18 8.27891L10.08 16.9198C9 15.8686 7.58 15.2169 6 15.2169C2.68 15.2169 0 18.0341 0 21.5241C0 25.0141 2.68 27.8313 6 27.8313C7.58 27.8313 9 27.1796 10.08 26.1284L24.32 34.8744C24.22 35.3159 24.16 35.7784 24.16 36.241C24.16 39.6258 26.78 42.38 30 42.38C33.22 42.38 35.84 39.6258 35.84 36.241C35.84 32.8561 33.22 30.1019 30 30.1019Z" fill="#25396E"/>
</svg>
