<svg width="37" height="40" viewBox="0 0 37 40" fill="none" xmlns="http://www.w3.org/2000/svg">
<path d="M13.2059 31.7C12.0412 31.7 11.0445 31.3185 10.2158 30.5554C9.38565 29.791 8.97059 28.8725 8.97059 27.8V4.4C8.97059 3.3275 9.38565 2.40905 10.2158 1.64465C11.0445 0.88155 12.0412 0.5 13.2059 0.5H32.2647C33.4294 0.5 34.4268 0.88155 35.2569 1.64465C36.0856 2.40905 36.5 3.3275 36.5 4.4V27.8C36.5 28.8725 36.0856 29.791 35.2569 30.5554C34.4268 31.3185 33.4294 31.7 32.2647 31.7H13.2059ZM4.73529 39.5C3.57059 39.5 2.57318 39.1185 1.74306 38.3554C0.914353 37.591 0.5 36.6725 0.5 35.6V10.25C0.5 9.6975 0.703294 9.23405 1.10988 8.85965C1.51506 8.48655 2.01765 8.3 2.61765 8.3C3.21765 8.3 3.72094 8.48655 4.12753 8.85965C4.53271 9.23405 4.73529 9.6975 4.73529 10.25V35.6H25.9118C26.5118 35.6 27.0151 35.7872 27.4216 36.1616C27.8268 36.5347 28.0294 36.9975 28.0294 37.55C28.0294 38.1025 27.8268 38.5653 27.4216 38.9384C27.0151 39.3128 26.5118 39.5 25.9118 39.5H4.73529Z" fill="#25396E"/>
</svg>
