<svg width="23" height="26" viewBox="0 0 23 26" fill="none" xmlns="http://www.w3.org/2000/svg">
<path d="M3.07499 2.10143C2.95682 2.1026 2.83973 2.12409 2.72882 2.16497V1.75456C2.72882 1.1806 3.19558 0.712891 3.76836 0.712891H19.0153C19.5881 0.712891 20.0548 1.1806 20.0548 1.75456V2.10143H3.07499ZM21.0944 4.53268H2.03545C1.46266 4.53268 0.995911 5.00039 0.995911 5.57435V24.6712C0.995911 25.2452 1.46266 25.7129 2.03545 25.7129H9.62409L10.7655 19.8327H8.43693C8.38392 19.8327 3.07499 19.5816 3.07499 19.5816L7.89741 19.241L7.81633 18.8598L5.76012 18.5629L7.71653 18.3983L7.58763 17.9306L4.39105 17.4441C4.39105 17.4441 7.86415 17.0556 7.91716 17.0556H11.277L11.5337 15.6691C11.8341 13.9858 12.5161 12.7452 13.5847 11.8223C14.6586 10.8931 16.0214 10.4348 17.6774 10.4348C18.3458 10.4348 18.772 10.5921 18.9571 10.9171C19.0797 11.1108 19.166 11.4546 19.2471 11.8118C19.324 12.1785 19.3926 12.5108 19.3459 12.7525C19.2866 13.1118 18.8666 13.2368 18.1015 13.2368H17.8385C16.4591 13.2368 15.6202 14.0316 15.3384 15.6431L15.0858 17.0546H16.6867C17.2834 17.0546 17.4986 17.4733 17.3333 18.415C17.1566 19.3952 16.773 19.8316 16.1784 19.8316H14.5796L13.4402 25.7129H21.0933C21.6661 25.7129 22.1329 25.2452 22.1329 24.6712V5.57435C22.1329 5.29826 22.0235 5.03347 21.8288 4.83815C21.634 4.64283 21.3699 4.53296 21.0944 4.53268ZM20.401 3.1431C20.4007 3.05119 20.3642 2.96312 20.2993 2.89812C20.2344 2.83313 20.1466 2.7965 20.0548 2.79622H3.07499C2.98326 2.7965 2.89538 2.83313 2.83052 2.89812C2.76566 2.96312 2.7291 3.05119 2.72882 3.1431V3.83789H20.401V3.1431Z" fill="white"/>
</svg>
