<svg width="36" height="31" viewBox="0 0 36 31" fill="none" xmlns="http://www.w3.org/2000/svg">
<path d="M20.5858 0.951172C16.6224 0.951172 12.8214 2.52563 10.0188 5.32818C7.21626 8.13072 5.64181 11.9318 5.6418 15.8952H0.660461L7.1196 22.3543L7.23584 22.5868L13.944 15.8952H8.9627C8.9627 9.46927 14.1599 4.27207 20.5858 4.27207C27.0118 4.27207 32.209 9.46927 32.209 15.8952C32.209 22.3211 27.0118 27.5183 20.5858 27.5183C17.3812 27.5183 14.4754 26.2066 12.3832 24.0978L10.0254 26.4556C11.4092 27.8471 13.0549 28.9509 14.8674 29.7032C16.6799 30.4556 18.6234 30.8417 20.5858 30.8392C24.5492 30.8392 28.3503 29.2648 31.1529 26.4622C33.9554 23.6597 35.5299 19.8586 35.5299 15.8952C35.5299 11.9318 33.9554 8.13072 31.1529 5.32818C28.3503 2.52563 24.5492 0.951172 20.5858 0.951172ZM18.9254 9.25341V17.5556L25.9823 21.74L27.2608 19.6146L21.4161 16.1443V9.25341H18.9254Z" fill="#010509" fill-opacity="0.6"/>
</svg>
