<svg width="31" height="31" viewBox="0 0 31 31" fill="none" xmlns="http://www.w3.org/2000/svg">
<path d="M20.3844 30.8392H17.0635V27.5183H20.3844V30.8392ZM17.0635 19.2161H13.7426V27.5183H17.0635V19.2161ZM30.347 15.8952H27.0261V22.537H30.347V15.8952ZM27.0261 12.5743H23.7053V15.8952H27.0261V12.5743ZM7.10078 15.8952H3.77988V19.2161H7.10078V15.8952ZM3.77988 12.5743H0.458984V15.8952H3.77988V12.5743ZM15.403 4.27207H18.7239V0.951172H15.403V4.27207ZM2.94966 3.44184V8.42319H7.931V3.44184H2.94966ZM8.76122 10.9139H2.11943C1.20619 10.9139 0.458984 10.1667 0.458984 9.25341V2.61162C0.458984 1.69837 1.20619 0.951172 2.11943 0.951172H8.76122C9.67447 0.951172 10.4217 1.69837 10.4217 2.61162V9.25341C10.4217 10.1667 9.67447 10.9139 8.76122 10.9139ZM2.94966 23.3672V28.3486H7.931V23.3672H2.94966ZM8.76122 30.8392H2.11943C1.20619 30.8392 0.458984 30.092 0.458984 29.1788V22.537C0.458984 21.6237 1.20619 20.8765 2.11943 20.8765H8.76122C9.67447 20.8765 10.4217 21.6237 10.4217 22.537V29.1788C10.4217 30.092 9.67447 30.8392 8.76122 30.8392ZM22.875 3.44184V8.42319H27.8564V3.44184H22.875ZM28.6866 10.9139H22.0448C21.1316 10.9139 20.3844 10.1667 20.3844 9.25341V2.61162C20.3844 1.69837 21.1316 0.951172 22.0448 0.951172H28.6866C29.5998 0.951172 30.347 1.69837 30.347 2.61162V9.25341C30.347 10.1667 29.5998 10.9139 28.6866 10.9139ZM27.0261 27.5183V22.537H20.3844V25.8579H23.7053V30.8392H30.347V27.5183H27.0261ZM23.7053 15.8952H17.0635V19.2161H23.7053V15.8952ZM17.0635 12.5743H7.10078V15.8952H10.4217V19.2161H13.7426V15.8952H17.0635V12.5743ZM18.7239 10.9139V7.59296H15.403V4.27207H12.0821V10.9139H18.7239ZM6.68566 4.68718H4.19499V7.17785H6.68566V4.68718ZM6.68566 24.6126H4.19499V27.1032H6.68566V24.6126ZM26.611 4.68718H24.1204V7.17785H26.611V4.68718Z" fill="#010509" fill-opacity="0.6"/>
</svg>
