<svg width="67" height="73" viewBox="0 0 67 73" fill="none" xmlns="http://www.w3.org/2000/svg">
<path fill-rule="evenodd" clip-rule="evenodd" d="M30.8995 0.869796C32.3374 0.331824 33.9084 0.26169 35.3885 0.669397L36.0152 0.869796L61.5205 10.4343C62.8137 10.9192 63.9425 11.7617 64.7753 12.8635C65.6081 13.9653 66.1107 15.2811 66.2244 16.6576L66.2499 17.2588V36.7995C66.2498 42.7037 64.6556 48.4984 61.6356 53.5718C58.6157 58.6452 54.282 62.8092 49.0921 65.6242L48.1229 66.1306L35.9022 72.241C35.2293 72.5769 34.4943 72.7704 33.7433 72.8093C32.9922 72.8482 32.2411 72.7316 31.5372 72.4669L31.0125 72.241L18.7918 66.1306C13.5108 63.4901 9.04065 59.4726 5.85332 54.5024C2.66599 49.5322 0.879697 43.7937 0.683013 37.8926L0.664795 36.7995V17.2588C0.664816 15.8783 1.05695 14.5263 1.79553 13.36C2.53412 12.1938 3.58878 11.2613 4.83674 10.6711L5.39421 10.4343L30.8995 0.869796ZM33.4573 7.69429L7.95203 17.2588V36.7995C7.95212 41.3723 9.18158 45.8609 11.5117 49.7955C13.8418 53.7301 17.1868 56.9658 21.1966 59.164L22.0528 59.6122L33.4573 65.3145L44.8619 59.6122C48.9527 57.5672 52.4183 54.4599 54.8959 50.6156C57.3735 46.7714 58.7718 42.3316 58.9445 37.7614L58.9627 36.7995V17.2588L33.4573 7.69429ZM31.6647 20.2575C32.6514 19.8882 33.7282 19.8335 34.7472 20.1008L35.25 20.2575L45.4521 24.0833C46.347 24.419 47.1297 24.9993 47.7107 25.7582C48.2918 26.5171 48.648 27.424 48.7387 28.3755L48.7605 28.8601V36.6756C48.7605 39.3839 48.0418 42.0437 46.6776 44.3834C45.3135 46.7231 43.3529 48.6589 40.996 49.993L40.3037 50.3647L35.414 52.8059C34.8844 53.0711 34.3064 53.226 33.7151 53.261C33.1239 53.2961 32.5316 53.2107 31.9744 53.01L31.5007 52.8096L26.6146 50.3647C24.1926 49.1536 22.1354 47.3215 20.6528 45.0555C19.1703 42.7894 18.3156 40.1706 18.176 37.4663L18.1542 36.6756V28.8601C18.1543 27.9045 18.4228 26.9682 18.9291 26.1578C19.4355 25.3474 20.1593 24.6955 21.018 24.2764L21.4626 24.0833L31.6647 20.2575ZM33.4573 27.3698L25.4414 30.3758V36.6793C25.4418 38.0645 25.8011 39.426 26.4844 40.6309C27.1677 41.8359 28.1515 42.8433 29.3401 43.5548L29.872 43.8463L33.4573 45.6389L37.0427 43.8463C38.2825 43.2264 39.3404 42.2957 40.1132 41.1449C40.8859 39.9942 41.347 38.6627 41.4514 37.2805L41.4733 36.6756V30.3758L33.4573 27.3698Z" fill="#25396E"/>
</svg>
